<svg xmlns="http://www.w3.org/2000/svg" viewBox="0 0 19 10" width="19" height="10">
  <rect width="19" height="10" fill="#fff"/>
  <rect width="19" height="1.25" fill="#b22234"/>
  <rect y="1.25" width="19" height="1.25" fill="#fff"/>
  <rect y="2.5" width="19" height="1.25" fill="#b22234"/>
  <rect y="3.75" width="19" height="1.25" fill="#fff"/>
  <rect y="5" width="19" height="1.25" fill="#b22234"/>
  <rect y="6.25" width="19" height="1.25" fill="#fff"/>
  <rect y="7.5" width="19" height="1.25" fill="#b22234"/>
  <rect y="8.75" width="19" height="1.25" fill="#fff"/>
  <polygon points="0,0 6.65,0 6.65,1.25 0,1.25 0,2.5 6.65,2.5 6.65,3.75 0,3.75 0,5 6.65,5 6.65,6.25 0,6.25 0,7.5 6.65,7.5 6.65,8.75 0,8.75 0,10" fill="#3c3b6e"/>
  <rect x="0" y="1.25" width="3.325" height="1.25" fill="#fff"/>
  <rect x="0" y="3.75" width="3.325" height="1.25" fill="#fff"/>
  <rect x="0" y="6.25" width="3.325" height="1.25" fill="#fff"/>
  <rect x="3.325" y="1.25" width="1.6625" height="1.25" fill="#fff"/>
  <rect x="3.325" y="3.75" width="1.6625" height="1.25" fill="#fff"/>
  <rect x="3.325" y="6.25" width="1.6625" height="1.25" fill="#fff"/>
  <rect x="5" y="0" width="1.6625" height="1.25" fill="#fff"/>
  <rect x="5" y="2.5" width="1.6625" height="1.25" fill="#fff"/>
  <rect x="5" y="5" width="1.6625" height="1.25" fill="#fff"/>
  <rect x="5" y="7.5" width="1.6625" height="1.25" fill="#fff"/>
</svg>